# AST/ASF file generated using VICON BodyLanguage
# -----------------------------------------------
:version 1.10
:name VICON
:units
  mass 1.0
  length 0.45
  angle deg
:documentation
   .ast/.asf automatically generated from VICON data using
   VICON BodyBuilder and BodyLanguage model FoxedUp or BRILLIANT.MOD
:root
   order TX TY TZ RX RY RZ
   axis XYZ
   position 0 0 0  
   orientation 0 0 0 
:bonedata
  begin
     id 1 
     name lhipjoint
     direction 0.822369 -0.411937 0.392449 
     length 3.8167 
     axis 0 0 0  XYZ
  end
  begin
     id 2 
     name lfemur
     direction 0.34202 -0.939693 0  
     length 6.16791  
     axis 0 0 20  XYZ
    dof rx ry rz
    limits (-160.0 20.0)
           (-70.0 70.0)
           (-60.0 70.0)
  end
  begin
     id 3 
     name ltibia
     direction 0.34202 -0.939693 0   
     length 7.07101   
     axis 0 0 20   XYZ
    dof rx
    limits (-10.0 170.0)
  end
  begin
     id 4 
     name lfoot
     direction 0.028254 -0.0776273 0.996582   
     length 1.66799   
     axis -90 7.62852e-016 20   XYZ
    dof rx rz
    limits (-45.0 90.0)
           (-70.0 20.0)
  end
  begin
     id 5 
     name ltoes
     direction 1.53483e-011 -4.21688e-011 1   
     length 0.851674   
     axis -90 7.62852e-016 20   XYZ
    dof rx
    limits (-90.0 20.0)
  end
  begin
     id 6 
     name rhipjoint
     direction -0.822466 -0.411836 0.392353   
     length 3.81764  
     axis 0 0 0  XYZ 
  end
  begin
     id 7 
     name rfemur
     direction -0.34202 -0.939693 0   
     length 6.28636   
     axis 0 0 -20   XYZ
    dof rx ry rz
    limits (-160.0 20.0)
           (-70.0 70.0)
           (-70.0 60.0)
  end
  begin
     id 8 
     name rtibia
     direction -0.34202 -0.939693 0   
     length 6.85621   
     axis 0 0 -20   XYZ
    dof rx
    limits (-10.0 170.0)
 end
 begin
     id 9 
     name rfoot
     direction -0.0553036 -0.151945 0.98684   
     length 1.57293  
     axis -90 -7.62852e-016 -20   XYZ
    dof rx rz
    limits (-45.0 90.0)
           (-20.0 70.0)
  end
  begin
     id 10 
     name rtoes
     direction -1.53592e-011 -4.21964e-011 1   
     length 0.802812   
     axis -90 -7.62852e-016 -20   XYZ
    dof rx
    limits (-90.0 20.0)
  end
  begin
     id 11 
     name lowerback
     direction 0.00654913 0.996475 -0.0836396   
     length 1.97212   
     axis 0 0 0   XYZ
    dof rx ry rz
    limits (-20.0 45.0)
           (-30.0 30.0)
           (-30.0 30.0)
  end
  begin
     id 12 
     name upperback
     direction 0.0111875 0.994527 0.103877   
     length 1.89704   
     axis 0 0 0   XYZ
    dof rx ry rz
    limits (-20.0 45.0)
           (-30.0 30.0)
           (-30.0 30.0)
  end
  begin
     id 13 
     name thorax
     direction 0.00473652 0.989004 0.147814   
     length 1.94516   
     axis 0 0 0   XYZ
    dof rx ry rz
    limits (-20.0 45.0)
           (-30.0 30.0)
           (-30.0 30.0)
  end
  begin
     id 14 
     name lowerneck
     direction -0.00925808 0.999011 0.0434791   
     length 1.81771   
     axis 0 0 0   XYZ
    dof rx ry rz
    limits (-20.0 45.0)
           (-30.0 30.0)
           (-30.0 30.0)
  end
  begin
     id 15 
     name upperneck
     direction 0.00451595 0.964412 -0.264365   
     length 1.80434   
     axis 0 0 0   XYZ
    dof rx ry rz
    limits (-20.0 45.0)
           (-30.0 30.0)
           (-30.0 30.0)
  end
  begin
     id 16
     name head
     direction -0.00110849 0.995756 -0.0920241  
     length 1.84006  
     axis 0 0 0   XYZ
    dof rx ry rz
    limits (-20.0 45.0)
           (-30.0 30.0)
           (-30.0 30.0)
  end
  begin
     id 17 
     name lclavicle
     direction 0.921253 0.385213 0.0538957  
     length 3.67415  
     axis 0 0 0   XYZ
    dof ry rz
    limits (-20.0 10.0)
           (0.0 20.0)
  end
  begin
     id 18 
     name lhumerus
     direction 1 -4.48961e-011 6.73441e-028   
     length 4.32712   
     axis 180 -30 -90   XYZ
    dof rx ry rz
    limits (-60.0 90.0)
           (-90.0 90.0)
           (-90.0 90.0)
  end
  begin
     id 19
     name lradius
     direction 1 -4.48985e-011 -9.53507e-028   
     length 3.28587   
     axis 180 -30 -90   XYZ
    dof rx
    limits (-10.0 170.0)
  end
  begin
     id 20
     name lwrist
     direction 1 -4.48951e-011 -4.67472e-027   
     length 1.64293   
     axis 1.65735e-015 90 90   XYZ
    dof ry
    limits (-180.0 0.0)
 end
  begin
     id 21 
     name lhand
     direction 1 -4.48946e-011 -9.34945e-027   
     length 0.433158   
     axis 5.96574e-015 90 90   XYZ
    dof rx rz
    limits (-90.0 90.0)
           (-45.0 45.0)
  end
  begin
     id 22 
     name lfingers
     direction 1 -4.48882e-011 -1.86989e-026   
     length 0.349224   
     axis 1.19315e-014 90 90   XYZ
    dof rx
    limits (0.0 90.0)
  end
  begin
     id 23
     name lthumb
     direction 0.707107 -6.3493e-011 0.707107   
     length 0.501417   
     axis -90 45 2.85299e-015   XYZ
    dof rx rz
    limits (-45.0 45.0)
           (-45.0 45.0)
  end
  begin
     id 24 
     name rclavicle
     direction -0.884378 0.46502 -0.0403866   
     length 3.50218  
     axis 0 0 0   XYZ 
    dof ry rz
    limits (-10.0 20.0)
           (-20.0 0.0)
  end
  begin
     id 25 
     name rhumerus
     direction -1 -4.48964e-011 1.58188e-027  
     length 4.29104   
     axis 180 30 90   XYZ
    dof rx ry rz
    limits (-90.0 60.0)
           (-90.0 90.0)
           (-90.0 90.0)
  end
  begin
     id 26 
     name rradius
     direction -1 -4.48978e-011 -1.9722e-027   
     length 3.2272   
     axis 180 30 90   XYZ
    dof rx
    limits (-10.0 170.0)
  end
  begin
     id 27 
     name rwrist
     direction -1 -4.48969e-011 -4.67472e-027   
     length 1.6136   
     axis 1.65735e-015 -90 -90   XYZ
    dof ry
    limits (-180.0 0.0)
  end
  begin
     id 28
     name rhand
     direction -1 -4.48846e-011 -9.34945e-027   
     length 0.543623   
     axis 5.96574e-015 -90 -90   XYZ
    dof rx rz
    limits (-90.0 90.0)
           (-45.0 45.0)
  end
  begin
     id 29
     name rfingers
     direction -1 -4.49074e-011 -1.86989e-026   
     length 0.438283   
     axis 1.19315e-014 -90 -90   XYZ
    dof rx
    limits (0.0 90.0)
  end
  begin
     id 30
     name rthumb
     direction -0.707107 -6.34834e-011 0.707107   
     length 0.629289   
     axis -90 -45 -2.85299e-015   XYZ
    dof rx rz
    limits (-45.0 45.0)
           (-45.0 45.0)
  end
:hierarchy
  begin
    root lhipjoint rhipjoint lowerback
    lhipjoint lfemur
    lfemur ltibia
    ltibia lfoot
    lfoot ltoes
    rhipjoint rfemur
    rfemur rtibia
    rtibia rfoot
    rfoot rtoes
    lowerback upperback
    upperback thorax
    thorax lowerneck lclavicle rclavicle
    lowerneck upperneck
    upperneck head
    lclavicle lhumerus
    lhumerus lradius
    lradius lwrist
    lwrist lhand lthumb
    lhand lfingers
    rclavicle rhumerus
    rhumerus rradius
    rradius rwrist
    rwrist rhand rthumb
    rhand rfingers
  end

#!OML:ASF H:\GeneralSubjects\Female5\Project 1\Capture day 1\Session 1\Female5.ASF
:FULLY-SPECIFIED
:DEGREES
46
root -24.9353 15.4455 -3.86935 -205.879 79.9982 -215.819
lowerback 14.3624 -2.34907 -8.35338
upperback -12.524 -4.0777 4.84502
thorax -21.8144 0.348379 11.8341
lowerneck -12.5144 -4.65753 -6.69115
upperneck 43.9995 -2.22113 -1.12997
head 19.0545 -1.30879 0.531057
rclavicle 7.39479e-014 -3.81667e-014
rhumerus -63.8754 24.7989 -84.5101
rradius 33.0443
rwrist -17.1255
rhand -21.0602 -21.6259
rfingers 7.12502
rthumb 5.31619 -51.5392
lclavicle 7.39479e-014 -3.81667e-014
lhumerus -51.5077 7.7454 74.3448
lradius 40.4577
lwrist -1.73877
lhand -26.2902 28.3194
lfingers 7.12502
lthumb 0.265456 58.299
rfemur -26.2382 10.544 23.1007
rtibia -0.315029
rfoot -45.4287 -34.4761
rtoes 22.9296
lfemur 10.7951 -11.0753 -35.5791
ltibia 11.3116
lfoot -29.7046 5.93527
ltoes -60.1435
47
root -24.6245 15.4563 -3.88303 -207.608 81.4079 -217.464
lowerback 13.9894 -2.32839 -7.10213
upperback -12.4604 -3.70609 4.78614
thorax -21.6508 0.276678 10.871
lowerneck -12.8201 -4.58341 -6.72589
upperneck 44.1726 -2.17407 -0.932351
head 19.2557 -1.28148 0.634787
rclavicle -1.39149e-014 -3.18055e-015
rhumerus -63.6178 24.0123 -84.3121
rradius 32.4796
rwrist -16.4803
rhand -21.6463 -20.7717
rfingers 7.12502
rthumb 4.75032 -50.6984
lclavicle -1.39149e-014 -3.18055e-015
lhumerus -51.834 7.27718 75.3625
lradius 40.3277
lwrist -1.94231
lhand -25.4252 28.1345
lfingers 7.12502
lthumb 1.10091 58.1114
rfemur -26.5785 6.17109 26.2524
rtibia 2.54423
rfoot -36.9279 -34.9721
rtoes 9.74876
lfemur 10.3722 -8.64383 -33.9308
ltibia 13.6759
lfoot -26.4506 5.52886
ltoes -60.0143
48
root -24.3129 15.4884 -3.88604 -210.192 83.0276 -219.957
lowerback 13.6923 -2.24794 -5.84058
upperback -12.3924 -3.26413 4.73806
thorax -21.5353 0.244311 9.90553
lowerneck -13.0327 -4.39295 -6.56096
upperneck 44.0787 -2.03837 -0.773369
head 19.2406 -1.19656 0.701467
rclavicle -5.80451e-014 2.70347e-014
rhumerus -63.1441 23.1961 -84.0839
rradius 31.9809
rwrist -16.1624
rhand -22.2978 -19.3028
rfingers 7.12502
rthumb 4.12121 -49.2427
lclavicle -5.80451e-014 2.70347e-014
lhumerus -52.2236 6.80178 76.2938
lradius 40.0546
lwrist -2.30406
lhand -24.7143 28.0614
lfingers 7.12502
lthumb 1.78749 58.0337
rfemur -26.8815 3.7475 28.807
rtibia 5.46873
rfoot -31.7805 -33.4479
rtoes 4.61117
lfemur 9.5949 -5.56798 -31.7544
ltibia 17.2125
lfoot -22.3961 5.10336
ltoes -59.4719
49
root -24.0057 15.5324 -3.87705 -216.807 84.691 -226.482
lowerback 13.4163 -2.09011 -4.92707
upperback -12.3224 -2.81212 4.69829
thorax -21.3987 0.274327 9.15714
lowerneck -13.1469 -4.36112 -6.43595
upperneck 44.3091 -2.04469 -0.731236
head 19.4205 -1.17921 0.695569
rclavicle 1.66979e-014 1.59028e-015
rhumerus -62.6441 22.5445 -83.9692
rradius 31.7284
rwrist -16.1093
rhand -22.5524 -18.3623
rfingers 7.12502
rthumb 3.87531 -48.3069
lclavicle 1.66979e-014 1.59028e-015
lhumerus -52.7242 6.23739 77.2572
lradius 39.7045
lwrist -2.58804
lhand -24.5766 26.539
lfingers 7.12502
lthumb 1.92045 56.5101
rfemur -26.4674 3.37568 30.5402
rtibia 7.20292
rfoot -29.3671 -31.2006
rtoes 4.97552
lfemur 8.44172 -2.31503 -29.5059
ltibia 20.9908
lfoot -17.6877 5.90602
ltoes -58.737
50
root -23.7077 15.5781 -3.85855 -232.259 86.1912 -241.835
lowerback 13.2218 -1.89214 -4.27836
upperback -12.2645 -2.38901 4.61904
thorax -21.304 0.334313 8.53666
lowerneck -13.1436 -4.10787 -6.05947
upperneck 44.2413 -1.80136 -0.753373
head 19.3463 -1.0348 0.661258
rclavicle 1.94809e-014 -3.33958e-014
rhumerus -62.3221 22.2618 -84.3533
rradius 31.7724
rwrist -16.1374
rhand -22.3129 -19.2348
rfingers 7.12502
rthumb 4.10665 -49.1749
lclavicle 1.94809e-014 -3.33958e-014
lhumerus -53.2921 5.78175 78.0065
lradius 39.3131
lwrist -3.03605
lhand -24.3832 24.9585
lfingers 7.12502
lthumb 2.10726 54.9279
rfemur -25.3952 3.86516 31.8496
rtibia 7.77487
rfoot -27.6581 -29.8426
rtoes 6.19493
lfemur 7.03257 0.341176 -27.466
ltibia 24.282
lfoot -13.5816 11.0515
ltoes -58.6753
51
root -23.424 15.6237 -3.8359 -262.087 86.9319 -271.457
lowerback 13.2623 -1.6874 -3.76702
upperback -12.1797 -2.0279 4.43411
thorax -21.3072 0.38037 7.90616
lowerneck -13.1951 -3.89371 -5.68423
upperneck 44.3013 -1.63546 -0.701416
head 19.3782 -0.909324 0.648511
rclavicle 1.55052e-014 1.90833e-014
rhumerus -62.0181 22.2294 -85.0749
rradius 31.9692
rwrist -16.3518
rhand -22.0509 -19.8201
rfingers 7.12502
rthumb 4.35957 -49.7552
lclavicle 1.55052e-014 1.90833e-014
lhumerus -53.6902 5.41743 78.5246
lradius 38.8628
lwrist -3.88438
lhand -21.7007 26.6887
lfingers 7.12502
lthumb 4.69776 56.6166
rfemur -23.8794 4.339 32.8485
rtibia 7.69768
rfoot -26.3953 -28.8977
rtoes 6.96747
lfemur 5.3978 2.1845 -25.9088
ltibia 28.192
lfoot -9.27911 14.989
ltoes -56.5987
52
root -23.1508 15.6649 -3.8104 -293.365 86.5594 -302.424
lowerback 13.4083 -1.50183 -3.3672
upperback -12.0409 -1.73592 4.21802
thorax -21.2853 0.405395 7.32785
lowerneck -13.2747 -3.75597 -5.4752
upperneck 44.4118 -1.56819 -0.559456
head 19.464 -0.838653 0.690582
rclavicle -7.7526e-015 -6.36111e-015
rhumerus -61.7883 22.3825 -85.9357
rradius 32.4353
rwrist -16.5564
rhand -21.9289 -19.5545
rfingers 7.12502
rthumb 4.47741 -49.4872
lclavicle -7.7526e-015 -6.36111e-015
lhumerus -53.9113 4.95603 79.0153
lradius 38.451
lwrist -4.63236
lhand -16.8899 28.5711
lfingers 7.12502
lthumb 9.34162 58.3441
rfemur -22.1433 4.78499 33.6119
rtibia 7.38545
rfoot -25.6103 -27.8183
rtoes 6.49444
lfemur 3.55409 3.37396 -24.7819
ltibia 32.6896
lfoot -5.69036 18.3209
ltoes -54.7635
53
root -22.8837 15.6977 -3.78239 -313.456 85.6227 -322.25
lowerback 13.5314 -1.3729 -2.91796
upperback -11.9236 -1.50029 4.03852
thorax -21.2617 0.405155 6.78142
lowerneck -13.2606 -3.66834 -5.25506
upperneck 44.5207 -1.54855 -0.506107
head 19.5234 -0.795267 0.678795
rclavicle -3.598e-014 3.18055e-014
rhumerus -61.7202 22.74 -86.9151
rradius 33.232
rwrist -16.5851
rhand -21.6867 -19.1584
rfingers 7.12502
rthumb 4.71129 -49.086
lclavicle -3.598e-014 3.18055e-014
lhumerus -54.0948 4.4306 79.4627
lradius 37.9879
lwrist -4.84659
lhand -16.0957 29.1837
lfingers 7.12502
lthumb 10.1078 58.9209
rfemur -20.3945 5.09038 34.4113
rtibia 6.91691
rfoot -24.6496 -27.2408
rtoes 3.31738
lfemur 1.4775 4.42507 -23.7579
ltibia 37.5542
lfoot -2.5443 21.2335
ltoes -49.502
54
root -22.6212 15.7228 -3.75298 -326.922 84.5158 -335.526
lowerback 13.6268 -1.27377 -2.26324
upperback -11.8385 -1.24091 3.90744
thorax -21.264 0.393791 6.16547
lowerneck -13.3468 -3.42831 -4.79126
upperneck 44.5087 -1.32256 -0.580385
head 19.5147 -0.649852 0.598025
rclavicle 2.90226e-014 -1.43125e-014
rhumerus -61.584 23.0896 -87.8049
rradius 34.067
rwrist -16.3604
rhand -21.4283 -18.6178
rfingers 7.12502
rthumb 4.96078 -48.5397
lclavicle 2.90226e-014 -1.43125e-014
lhumerus -54.2304 3.87341 79.8334
lradius 37.3945
lwrist -4.75945
lhand -15.5584 28.4161
lfingers 7.12502
lthumb 10.6261 58.1274
rfemur -18.6934 5.12239 35.3867
rtibia 6.3842
rfoot -23.5903 -26.6189
rtoes 0.869969
lfemur -0.697069 5.5929 -22.624
ltibia 42.625
lfoot -0.666666 23.7139
ltoes -43.1956
55
root -22.367 15.7466 -3.72268 -336.129 83.2841 -344.616
lowerback 13.7015 -1.17473 -1.51142
upperback -11.804 -0.948727 3.79114
thorax -21.3181 0.388846 5.50237
lowerneck -13.1607 -3.25468 -4.39988
upperneck 44.4765 -1.19159 -0.634031
head 19.4212 -0.546123 0.525
rclavicle -2.28602e-014 -4.45278e-014
rhumerus -61.4489 23.3458 -88.5826
rradius 34.9989
rwrist -15.8437
rhand -21.5349 -18.9152
rfingers 7.12502
rthumb 4.85789 -48.8395
lclavicle -2.28602e-014 -4.45278e-014
lhumerus -54.249 3.38494 80.03
lradius 36.6624
lwrist -4.78453
lhand -14.7286 27.2079
lfingers 7.12502
lthumb 11.4265 56.8766
rfemur -17.1188 5.11758 36.3251
rtibia 5.90154
rfoot -22.9632 -25.6497
rtoes 0.403988
lfemur -3.07978 6.19955 -21.589
ltibia 46.4564
lfoot -0.787456 27.2848
ltoes -36.6044
56
root -22.124 15.7727 -3.69217 -341.948 81.9118 -350.445
lowerback 13.739 -1.06065 -0.859022
upperback -11.8271 -0.653185 3.67953
thorax -21.4146 0.404825 4.9032
lowerneck -12.7325 -3.15964 -3.99947
upperneck 44.4419 -1.15663 -0.760774
head 19.2601 -0.484098 0.398411
rclavicle -1.0138e-014 1.27222e-014
rhumerus -61.3294 23.5432 -89.1631
rradius 36.1203
rwrist -15.2665
rhand -21.6248 -19.8887
rfingers 7.12502
rthumb 4.77107 -49.815
lclavicle -1.0138e-014 1.27222e-014
lhumerus -54.1721 2.82494 80.1726
lradius 35.9242
lwrist -4.59744
lhand -16.1035 27.5282
lfingers 7.12502
lthumb 10.1003 57.2658
rfemur -15.7442 5.30006 37.086
rtibia 5.45323
rfoot -22.6965 -24.8532
rtoes -0.738373
lfemur -5.89925 6.41792 -20.8723
ltibia 49.4542
lfoot 5.27716 29.0032
ltoes -44.2012
57
root -21.8891 15.8004 -3.66051 -345.302 80.3649 -353.919
lowerback 13.6917 -0.919037 -0.405118
upperback -11.8126 -0.372995 3.5669
thorax -21.3922 0.438768 4.41842
lowerneck -12.6583 -2.97706 -3.30717
upperneck 44.3162 -1.0011 -1.0883
head 19.131 -0.362372 0.138485
rclavicle -3.18055e-015 -4.77083e-015
rhumerus -60.8157 23.7639 -89.5126
rradius 37.0253
rwrist -14.9313
rhand -21.9742 -19.8248
rfingers 7.12502
rthumb 4.4337 -49.7584
lclavicle -3.18055e-015 -4.77083e-015
lhumerus -54.0793 2.24932 80.219
lradius 35.4959
lwrist -4.19628
lhand -14.5181 28.1401
lfingers 7.12502
lthumb 11.6295 57.7974
rfemur -14.5652 5.51122 37.6746
rtibia 5.07443
rfoot -22.1848 -23.9408
rtoes -2.80125
lfemur -9.00504 6.53383 -20.5061
ltibia 53.0077
lfoot -6.08977 26.2288
ltoes -37.28
58
root -21.6604 15.8291 -3.63103 -346.976 78.5773 -355.804
lowerback 13.6192 -0.714262 -0.053145
upperback -11.5823 -0.0664913 3.3239
thorax -21.5811 0.530745 4.01453
lowerneck -12.6239 -2.76456 -2.70906
upperneck 44.2438 -0.806678 -1.30158
head 19.0551 -0.224982 -0.0405856
rclavicle 2.5842e-015 0
rhumerus -59.9853 24.1776 -89.9022
rradius 37.5388
rwrist -14.9729
rhand -22.3554 -20.0003
rfingers 7.12502
rthumb 4.06559 -49.9412
lclavicle 2.5842e-015 0
lhumerus -54.1267 1.80203 80.0373
lradius 35.4591
lwrist -3.79767
lhand -16.3714 28.1623
lfingers 7.12502
lthumb 9.84187 57.9123
rfemur -13.617 5.87547 38.0703
rtibia 4.90485
rfoot -21.5847 -22.8454
rtoes -3.56527
lfemur -12.2731 6.50766 -20.5076
ltibia 55.7352
lfoot -10.9799 23.1139
ltoes -37.293
59
root -21.4356 15.8549 -3.60151 -348.169 76.5791 -357.189
lowerback 13.5293 -0.433894 0.208638
upperback -11.5552 0.347694 3.1691
thorax -21.5056 0.644297 3.54453
lowerneck -12.6061 -2.51915 -2.27546
upperneck 44.3249 -0.57848 -1.29144
head 19.0918 -0.0658859 -0.0734503
rclavicle -5.1684e-015 -4.13472e-014
rhumerus -58.9534 24.4636 -90.1231
rradius 37.9457
rwrist -15.0661
rhand -22.2111 -21.0026
rfingers 7.12502
rthumb 4.20491 -50.9409
lclavicle -5.1684e-015 -4.13472e-014
lhumerus -54.268 1.49586 79.5943
lradius 35.5781
lwrist -3.39624
lhand -15.2769 28.1219
lfingers 7.12502
lthumb 10.8977 57.8192
rfemur -12.6515 6.89065 38.4139
rtibia 4.78682
rfoot -21.1514 -22.1524
rtoes -2.77569
lfemur -15.4071 6.1016 -20.5695
ltibia 57.7047
lfoot -15.6594 19.7424
ltoes -36.6231
60
root -21.2109 15.8774 -3.56859 -348.757 74.5292 -357.889
lowerback 13.376 -0.145664 0.3429
upperback -11.4653 0.729554 2.99302
thorax -21.2892 0.756552 3.12952
lowerneck -12.5712 -2.28547 -1.89318
upperneck 44.3519 -0.36843 -1.26249
head 19.0913 0.0773797 -0.0919747
rclavicle -2.88238e-014 -2.3059e-014
rhumerus -57.681 24.5258 -90.143
rradius 38.2503
rwrist -14.9978
rhand -22.6306 -20.4307
rfingers 7.12502
rthumb 3.79986 -50.3766
lclavicle -2.88238e-014 -2.3059e-014
lhumerus -54.3308 1.47522 78.7746
lradius 35.6615
lwrist -3.32805
lhand -17.7975 28.7071
lfingers 7.12502
lthumb 8.46572 58.5174
rfemur -11.5317 8.1092 38.6476
rtibia 4.5457
rfoot -20.6678 -21.8714
rtoes -2.88356
lfemur -18.3388 5.46149 -20.7369
ltibia 58.5608
lfoot -19.6182 16.716
ltoes -35.46
